<?xml version="1.0" encoding="UTF-8" standalone="no"?>
<!DOCTYPE svg PUBLIC "-//W3C//DTD SVG 1.1//EN"
 "http://www.w3.org/Graphics/SVG/1.1/DTD/svg11.dtd">
<!-- Generated by graphviz version 2.40.1 (20161225.0304)
 -->
<!-- Title: abstract Pages: 1 -->
<svg width="432pt" height="213pt"
 viewBox="0.00 0.00 432.00 212.91" xmlns="http://www.w3.org/2000/svg" xmlns:xlink="http://www.w3.org/1999/xlink">
<g id="graph0" class="graph" transform="scale(.3434 .3434) rotate(0) translate(4 616)">
<title>abstract</title>
<polygon fill="#ffffff" stroke="transparent" points="-4,4 -4,-616 1254,-616 1254,4 -4,4"/>
<!-- S24 -->
<g id="node1" class="node">
<title>S24</title>
<ellipse fill="none" stroke="#000000" cx="1195" cy="-522" rx="27" ry="18"/>
<text text-anchor="middle" x="1195" y="-518.3" font-family="Times,serif" font-size="14.00" fill="#000000">S24</text>
</g>
<!-- 27 -->
<g id="node2" class="node">
<title>27</title>
<ellipse fill="none" stroke="#000000" cx="1223" cy="-378" rx="27" ry="18"/>
<text text-anchor="middle" x="1223" y="-374.3" font-family="Times,serif" font-size="14.00" fill="#000000">27</text>
</g>
<!-- S24&#45;&gt;27 -->
<g id="edge1" class="edge">
<title>S24&#45;&gt;27</title>
<path fill="none" stroke="#000000" d="M1198.4896,-504.0535C1203.2683,-479.4774 1211.8971,-435.1008 1217.5366,-406.0974"/>
<polygon fill="#000000" stroke="#000000" points="1220.9933,-406.6569 1219.4664,-396.1727 1214.122,-405.3208 1220.9933,-406.6569"/>
</g>
<!-- 25 -->
<g id="node3" class="node">
<title>25</title>
<ellipse fill="none" stroke="#000000" cx="1168" cy="-450" rx="27" ry="18"/>
<text text-anchor="middle" x="1168" y="-446.3" font-family="Times,serif" font-size="14.00" fill="#000000">25</text>
</g>
<!-- S24&#45;&gt;25 -->
<g id="edge2" class="edge">
<title>S24&#45;&gt;25</title>
<path fill="none" stroke="#000000" d="M1188.3258,-504.2022C1185.2524,-496.0064 1181.5384,-486.1024 1178.1305,-477.0145"/>
<polygon fill="#000000" stroke="#000000" points="1181.3858,-475.7274 1174.5974,-467.593 1174.8315,-478.1853 1181.3858,-475.7274"/>
</g>
<!-- T24 -->
<g id="node17" class="node">
<title>T24</title>
<ellipse fill="none" stroke="#000000" cx="1027" cy="-90" rx="27" ry="18"/>
<text text-anchor="middle" x="1027" y="-86.3" font-family="Times,serif" font-size="14.00" fill="#000000">T24</text>
</g>
<!-- 27&#45;&gt;T24 -->
<g id="edge13" class="edge">
<title>27&#45;&gt;T24</title>
<path fill="none" stroke="#000000" d="M1224.378,-359.9471C1226.6389,-317.0039 1226.2725,-207.6143 1171,-144 1156.4736,-127.2813 1100.2984,-109.5531 1062.5567,-99.1454"/>
<polygon fill="#000000" stroke="#000000" points="1063.0174,-95.6443 1052.4503,-96.4109 1061.1891,-102.4013 1063.0174,-95.6443"/>
</g>
<!-- T1 -->
<g id="node15" class="node">
<title>T1</title>
<ellipse fill="none" stroke="#000000" cx="612" cy="-90" rx="27" ry="18"/>
<text text-anchor="middle" x="612" y="-86.3" font-family="Times,serif" font-size="14.00" fill="#000000">T1</text>
</g>
<!-- 25&#45;&gt;T1 -->
<g id="edge11" class="edge">
<title>25&#45;&gt;T1</title>
<path fill="none" stroke="#000000" d="M1167.5284,-431.8777C1166.2988,-412.7842 1162.2074,-382.4306 1149,-360 1124.222,-317.9186 1108.5221,-312.0137 1066,-288 1020.8406,-262.4969 1002.0983,-273.7146 955,-252 871.6562,-213.5745 862.3607,-182.3889 779,-144 735.3564,-123.9014 682.1165,-108.0746 647.6613,-98.8826"/>
<polygon fill="#000000" stroke="#000000" points="648.1636,-95.3961 637.6028,-96.2456 646.3883,-102.1672 648.1636,-95.3961"/>
</g>
<!-- 26 -->
<g id="node16" class="node">
<title>26</title>
<ellipse fill="none" stroke="#000000" cx="1113" cy="-378" rx="27" ry="18"/>
<text text-anchor="middle" x="1113" y="-374.3" font-family="Times,serif" font-size="14.00" fill="#000000">26</text>
</g>
<!-- 25&#45;&gt;26 -->
<g id="edge12" class="edge">
<title>25&#45;&gt;26</title>
<path fill="none" stroke="#000000" d="M1155.5196,-433.6621C1148.4876,-424.4564 1139.5653,-412.7764 1131.7117,-402.4953"/>
<polygon fill="#000000" stroke="#000000" points="1134.2828,-400.0953 1125.431,-394.2733 1128.72,-404.3446 1134.2828,-400.0953"/>
</g>
<!-- S1 -->
<g id="node4" class="node">
<title>S1</title>
<ellipse fill="none" stroke="#000000" cx="490" cy="-594" rx="27" ry="18"/>
<text text-anchor="middle" x="490" y="-590.3" font-family="Times,serif" font-size="14.00" fill="#000000">S1</text>
</g>
<!-- 10 -->
<g id="node5" class="node">
<title>10</title>
<ellipse fill="none" stroke="#000000" cx="416" cy="-522" rx="27" ry="18"/>
<text text-anchor="middle" x="416" y="-518.3" font-family="Times,serif" font-size="14.00" fill="#000000">10</text>
</g>
<!-- S1&#45;&gt;10 -->
<g id="edge3" class="edge">
<title>S1&#45;&gt;10</title>
<path fill="none" stroke="#000000" d="M474.6672,-579.0816C464.249,-568.945 450.2922,-555.3654 438.6053,-543.9944"/>
<polygon fill="#000000" stroke="#000000" points="440.9212,-541.3644 431.3132,-536.8993 436.0397,-546.3815 440.9212,-541.3644"/>
</g>
<!-- 2 -->
<g id="node6" class="node">
<title>2</title>
<ellipse fill="none" stroke="#000000" cx="526" cy="-522" rx="27" ry="18"/>
<text text-anchor="middle" x="526" y="-518.3" font-family="Times,serif" font-size="14.00" fill="#000000">2</text>
</g>
<!-- S1&#45;&gt;2 -->
<g id="edge4" class="edge">
<title>S1&#45;&gt;2</title>
<path fill="none" stroke="#000000" d="M498.7146,-576.5708C502.9597,-568.0807 508.1536,-557.6929 512.8663,-548.2674"/>
<polygon fill="#000000" stroke="#000000" points="516.024,-549.7782 517.3657,-539.2687 509.763,-546.6477 516.024,-549.7782"/>
</g>
<!-- 10&#45;&gt;T1 -->
<g id="edge21" class="edge">
<title>10&#45;&gt;T1</title>
<path fill="none" stroke="#000000" d="M389.3445,-518.682C297.5289,-506.5214 0,-460.732 0,-378 0,-378 0,-378 0,-234 0,-176.4809 40.8702,-168.309 93,-144 178.8259,-103.9779 470.622,-93.3101 574.7224,-90.7439"/>
<polygon fill="#000000" stroke="#000000" points="574.853,-94.2419 584.7678,-90.5073 574.6881,-87.2438 574.853,-94.2419"/>
</g>
<!-- 11 -->
<g id="node22" class="node">
<title>11</title>
<ellipse fill="none" stroke="#000000" cx="931" cy="-378" rx="27" ry="18"/>
<text text-anchor="middle" x="931" y="-374.3" font-family="Times,serif" font-size="14.00" fill="#000000">11</text>
</g>
<!-- 10&#45;&gt;11 -->
<g id="edge19" class="edge">
<title>10&#45;&gt;11</title>
<path fill="none" stroke="#000000" d="M441.1442,-514.8463C455.3707,-511.0613 473.5541,-506.6592 490,-504 538.2047,-496.2055 894.3221,-503.3588 928,-468 943.4255,-451.8046 942.5472,-425.6035 938.77,-405.6375"/>
<polygon fill="#000000" stroke="#000000" points="942.1821,-404.8571 936.6016,-395.851 935.3478,-406.3714 942.1821,-404.8571"/>
</g>
<!-- 14 -->
<g id="node23" class="node">
<title>14</title>
<ellipse fill="none" stroke="#000000" cx="491" cy="-306" rx="27" ry="18"/>
<text text-anchor="middle" x="491" y="-302.3" font-family="Times,serif" font-size="14.00" fill="#000000">14</text>
</g>
<!-- 10&#45;&gt;14 -->
<g id="edge20" class="edge">
<title>10&#45;&gt;14</title>
<path fill="none" stroke="#000000" d="M414.6826,-503.6704C413.2581,-472.1862 414.0263,-406.7172 440,-360 446.7243,-347.9054 456.7728,-336.4618 466.177,-327.2487"/>
<polygon fill="#000000" stroke="#000000" points="468.6105,-329.7648 473.505,-320.3683 463.819,-324.6616 468.6105,-329.7648"/>
</g>
<!-- 13 -->
<g id="node24" class="node">
<title>13</title>
<ellipse fill="none" stroke="#000000" cx="490" cy="-450" rx="27" ry="18"/>
<text text-anchor="middle" x="490" y="-446.3" font-family="Times,serif" font-size="14.00" fill="#000000">13</text>
</g>
<!-- 10&#45;&gt;13 -->
<g id="edge22" class="edge">
<title>10&#45;&gt;13</title>
<path fill="none" stroke="#000000" d="M431.3328,-507.0816C441.751,-496.945 455.7078,-483.3654 467.3947,-471.9944"/>
<polygon fill="#000000" stroke="#000000" points="469.9603,-474.3815 474.6868,-464.8993 465.0788,-469.3644 469.9603,-474.3815"/>
</g>
<!-- 12 -->
<g id="node25" class="node">
<title>12</title>
<ellipse fill="none" stroke="#000000" cx="171" cy="-378" rx="27" ry="18"/>
<text text-anchor="middle" x="171" y="-374.3" font-family="Times,serif" font-size="14.00" fill="#000000">12</text>
</g>
<!-- 10&#45;&gt;12 -->
<g id="edge23" class="edge">
<title>10&#45;&gt;12</title>
<path fill="none" stroke="#000000" d="M389.4638,-517.7376C341.0285,-509.5086 240.807,-490.2672 214,-468 194.9431,-452.1704 183.7567,-425.9262 177.5957,-405.8511"/>
<polygon fill="#000000" stroke="#000000" points="180.9011,-404.6769 174.8168,-396.0033 174.1642,-406.578 180.9011,-404.6769"/>
</g>
<!-- 2&#45;&gt;T1 -->
<g id="edge17" class="edge">
<title>2&#45;&gt;T1</title>
<path fill="none" stroke="#000000" d="M503.1946,-511.9595C486.1859,-503.0986 464.2021,-488.4041 454,-468 446.8446,-453.6892 450.1531,-447.5307 454,-432 462.6996,-396.8781 470.7276,-389.2698 492,-360 505.1193,-341.9485 515.1488,-342.9083 527,-324 549.3732,-288.304 586.9595,-171.2889 603.6175,-117.4968"/>
<polygon fill="#000000" stroke="#000000" points="606.9676,-118.5101 606.5678,-107.9228 600.278,-116.4486 606.9676,-118.5101"/>
</g>
<!-- 3 -->
<g id="node18" class="node">
<title>3</title>
<ellipse fill="none" stroke="#000000" cx="1003" cy="-378" rx="27" ry="18"/>
<text text-anchor="middle" x="1003" y="-374.3" font-family="Times,serif" font-size="14.00" fill="#000000">3</text>
</g>
<!-- 2&#45;&gt;3 -->
<g id="edge14" class="edge">
<title>2&#45;&gt;3</title>
<path fill="none" stroke="#000000" d="M552.9533,-519.0087C646.6066,-508.5702 952.6628,-474.0639 961,-468 981.1599,-453.337 991.9447,-426.5315 997.5138,-405.9749"/>
<polygon fill="#000000" stroke="#000000" points="1000.9335,-406.7248 999.9099,-396.1795 994.134,-405.0615 1000.9335,-406.7248"/>
</g>
<!-- 16 -->
<g id="node19" class="node">
<title>16</title>
<ellipse fill="none" stroke="#000000" cx="528" cy="-378" rx="27" ry="18"/>
<text text-anchor="middle" x="528" y="-374.3" font-family="Times,serif" font-size="14.00" fill="#000000">16</text>
</g>
<!-- 2&#45;&gt;16 -->
<g id="edge15" class="edge">
<title>2&#45;&gt;16</title>
<path fill="none" stroke="#000000" d="M526.2533,-503.7623C526.5944,-479.201 527.2049,-435.2474 527.6062,-406.3541"/>
<polygon fill="#000000" stroke="#000000" points="531.1094,-406.1373 527.7488,-396.0896 524.1101,-406.04 531.1094,-406.1373"/>
</g>
<!-- 17 -->
<g id="node20" class="node">
<title>17</title>
<ellipse fill="none" stroke="#000000" cx="638" cy="-450" rx="27" ry="18"/>
<text text-anchor="middle" x="638" y="-446.3" font-family="Times,serif" font-size="14.00" fill="#000000">17</text>
</g>
<!-- 2&#45;&gt;17 -->
<g id="edge16" class="edge">
<title>2&#45;&gt;17</title>
<path fill="none" stroke="#000000" d="M545.5089,-509.4586C563.3067,-498.0171 589.8145,-480.9764 609.8953,-468.0673"/>
<polygon fill="#000000" stroke="#000000" points="611.8197,-470.9911 618.3389,-462.6393 608.0344,-465.1028 611.8197,-470.9911"/>
</g>
<!-- 18 -->
<g id="node21" class="node">
<title>18</title>
<ellipse fill="none" stroke="#000000" cx="203" cy="-306" rx="27" ry="18"/>
<text text-anchor="middle" x="203" y="-302.3" font-family="Times,serif" font-size="14.00" fill="#000000">18</text>
</g>
<!-- 2&#45;&gt;18 -->
<g id="edge18" class="edge">
<title>2&#45;&gt;18</title>
<path fill="none" stroke="#000000" d="M503.7053,-511.8462C482.0448,-501.6794 448.4914,-485.1228 421,-468 347.5744,-422.2674 267.4349,-358.8883 227.9099,-326.6388"/>
<polygon fill="#000000" stroke="#000000" points="230.0625,-323.8778 220.1091,-320.2471 225.626,-329.2923 230.0625,-323.8778"/>
</g>
<!-- S35 -->
<g id="node7" class="node">
<title>S35</title>
<ellipse fill="none" stroke="#000000" cx="873" cy="-594" rx="27" ry="18"/>
<text text-anchor="middle" x="873" y="-590.3" font-family="Times,serif" font-size="14.00" fill="#000000">S35</text>
</g>
<!-- 36 -->
<g id="node8" class="node">
<title>36</title>
<ellipse fill="none" stroke="#000000" cx="837" cy="-522" rx="27" ry="18"/>
<text text-anchor="middle" x="837" y="-518.3" font-family="Times,serif" font-size="14.00" fill="#000000">36</text>
</g>
<!-- S35&#45;&gt;36 -->
<g id="edge5" class="edge">
<title>S35&#45;&gt;36</title>
<path fill="none" stroke="#000000" d="M864.2854,-576.5708C860.0403,-568.0807 854.8464,-557.6929 850.1337,-548.2674"/>
<polygon fill="#000000" stroke="#000000" points="853.237,-546.6477 845.6343,-539.2687 846.976,-549.7782 853.237,-546.6477"/>
</g>
<!-- 43 -->
<g id="node9" class="node">
<title>43</title>
<ellipse fill="none" stroke="#000000" cx="909" cy="-522" rx="27" ry="18"/>
<text text-anchor="middle" x="909" y="-518.3" font-family="Times,serif" font-size="14.00" fill="#000000">43</text>
</g>
<!-- S35&#45;&gt;43 -->
<g id="edge6" class="edge">
<title>S35&#45;&gt;43</title>
<path fill="none" stroke="#000000" d="M881.7146,-576.5708C885.9597,-568.0807 891.1536,-557.6929 895.8663,-548.2674"/>
<polygon fill="#000000" stroke="#000000" points="899.024,-549.7782 900.3657,-539.2687 892.763,-546.6477 899.024,-549.7782"/>
</g>
<!-- 19 -->
<g id="node31" class="node">
<title>19</title>
<ellipse fill="none" stroke="#000000" cx="677" cy="-378" rx="27" ry="18"/>
<text text-anchor="middle" x="677" y="-374.3" font-family="Times,serif" font-size="14.00" fill="#000000">19</text>
</g>
<!-- 36&#45;&gt;19 -->
<g id="edge44" class="edge">
<title>36&#45;&gt;19</title>
<path fill="none" stroke="#000000" d="M837.9875,-503.9266C838.0899,-484.0195 835.2102,-452.163 818,-432 791.8181,-401.3259 746.1804,-388.0173 713.928,-382.2803"/>
<polygon fill="#000000" stroke="#000000" points="714.3986,-378.8111 703.9684,-380.6713 713.2821,-385.7215 714.3986,-378.8111"/>
</g>
<!-- 38 -->
<g id="node36" class="node">
<title>38</title>
<ellipse fill="none" stroke="#000000" cx="1040" cy="-450" rx="27" ry="18"/>
<text text-anchor="middle" x="1040" y="-446.3" font-family="Times,serif" font-size="14.00" fill="#000000">38</text>
</g>
<!-- 43&#45;&gt;38 -->
<g id="edge42" class="edge">
<title>43&#45;&gt;38</title>
<path fill="none" stroke="#000000" d="M930.0474,-510.432C951.7242,-498.518 985.6995,-479.8446 1010.147,-466.4077"/>
<polygon fill="#000000" stroke="#000000" points="1011.9271,-469.4233 1019.0048,-461.5393 1008.5554,-463.2888 1011.9271,-469.4233"/>
</g>
<!-- 40 -->
<g id="node37" class="node">
<title>40</title>
<ellipse fill="none" stroke="#000000" cx="782" cy="-450" rx="27" ry="18"/>
<text text-anchor="middle" x="782" y="-446.3" font-family="Times,serif" font-size="14.00" fill="#000000">40</text>
</g>
<!-- 43&#45;&gt;40 -->
<g id="edge43" class="edge">
<title>43&#45;&gt;40</title>
<path fill="none" stroke="#000000" d="M888.3126,-510.2717C867.4637,-498.4519 835.0893,-480.0979 811.5417,-466.7481"/>
<polygon fill="#000000" stroke="#000000" points="813.104,-463.6104 802.6785,-461.7233 809.6516,-469.6999 813.104,-463.6104"/>
</g>
<!-- S30 -->
<g id="node10" class="node">
<title>S30</title>
<ellipse fill="none" stroke="#000000" cx="250" cy="-450" rx="27" ry="18"/>
<text text-anchor="middle" x="250" y="-446.3" font-family="Times,serif" font-size="14.00" fill="#000000">S30</text>
</g>
<!-- 31 -->
<g id="node11" class="node">
<title>31</title>
<ellipse fill="none" stroke="#000000" cx="419" cy="-306" rx="27" ry="18"/>
<text text-anchor="middle" x="419" y="-302.3" font-family="Times,serif" font-size="14.00" fill="#000000">31</text>
</g>
<!-- S30&#45;&gt;31 -->
<g id="edge7" class="edge">
<title>S30&#45;&gt;31</title>
<path fill="none" stroke="#000000" d="M266.8222,-435.6663C296.8119,-410.113 359.6236,-356.5929 394.4427,-326.9246"/>
<polygon fill="#000000" stroke="#000000" points="396.9042,-329.4255 402.2458,-320.2758 392.3642,-324.0974 396.9042,-329.4255"/>
</g>
<!-- 33 -->
<g id="node12" class="node">
<title>33</title>
<ellipse fill="none" stroke="#000000" cx="93" cy="-378" rx="27" ry="18"/>
<text text-anchor="middle" x="93" y="-374.3" font-family="Times,serif" font-size="14.00" fill="#000000">33</text>
</g>
<!-- S30&#45;&gt;33 -->
<g id="edge8" class="edge">
<title>S30&#45;&gt;33</title>
<path fill="none" stroke="#000000" d="M227.5057,-439.6842C200.5747,-427.3336 155.2933,-406.5676 124.7936,-392.5805"/>
<polygon fill="#000000" stroke="#000000" points="126.0013,-389.2839 115.4525,-388.2967 123.0833,-395.6467 126.0013,-389.2839"/>
</g>
<!-- 31&#45;&gt;T1 -->
<g id="edge24" class="edge">
<title>31&#45;&gt;T1</title>
<path fill="none" stroke="#000000" d="M422.6213,-287.8725C427.0532,-268.7747 435.8964,-238.4175 451,-216 484.771,-165.8755 544.8495,-126.6848 581.2957,-106.0599"/>
<polygon fill="#000000" stroke="#000000" points="583.4131,-108.8882 590.4646,-100.9809 580.0211,-102.7649 583.4131,-108.8882"/>
</g>
<!-- 32 -->
<g id="node26" class="node">
<title>32</title>
<ellipse fill="none" stroke="#000000" cx="487" cy="-234" rx="27" ry="18"/>
<text text-anchor="middle" x="487" y="-230.3" font-family="Times,serif" font-size="14.00" fill="#000000">32</text>
</g>
<!-- 31&#45;&gt;32 -->
<g id="edge25" class="edge">
<title>31&#45;&gt;32</title>
<path fill="none" stroke="#000000" d="M433.4211,-290.7307C442.7972,-280.803 455.1867,-267.6847 465.6899,-256.5637"/>
<polygon fill="#000000" stroke="#000000" points="468.278,-258.9207 472.5997,-249.2473 463.1889,-254.1143 468.278,-258.9207"/>
</g>
<!-- T30 -->
<g id="node27" class="node">
<title>T30</title>
<ellipse fill="none" stroke="#000000" cx="129" cy="-162" rx="27" ry="18"/>
<text text-anchor="middle" x="129" y="-158.3" font-family="Times,serif" font-size="14.00" fill="#000000">T30</text>
</g>
<!-- 33&#45;&gt;T30 -->
<g id="edge26" class="edge">
<title>33&#45;&gt;T30</title>
<path fill="none" stroke="#000000" d="M78.8771,-362.2844C70.7465,-352.1468 61.3099,-338.2347 57,-324 52.3635,-308.6865 52.8933,-303.464 57,-288 67.2516,-249.3968 92.4174,-210.2854 110.0944,-186.099"/>
<polygon fill="#000000" stroke="#000000" points="113.0447,-187.9978 116.2266,-177.892 107.4371,-183.8078 113.0447,-187.9978"/>
</g>
<!-- 34 -->
<g id="node28" class="node">
<title>34</title>
<ellipse fill="none" stroke="#000000" cx="93" cy="-306" rx="27" ry="18"/>
<text text-anchor="middle" x="93" y="-302.3" font-family="Times,serif" font-size="14.00" fill="#000000">34</text>
</g>
<!-- 33&#45;&gt;34 -->
<g id="edge27" class="edge">
<title>33&#45;&gt;34</title>
<path fill="none" stroke="#000000" d="M93,-359.8314C93,-352.131 93,-342.9743 93,-334.4166"/>
<polygon fill="#000000" stroke="#000000" points="96.5001,-334.4132 93,-324.4133 89.5001,-334.4133 96.5001,-334.4132"/>
</g>
<!-- 9 -->
<g id="node13" class="node">
<title>9</title>
<ellipse fill="none" stroke="#000000" cx="892" cy="-450" rx="27" ry="18"/>
<text text-anchor="middle" x="892" y="-446.3" font-family="Times,serif" font-size="14.00" fill="#000000">9</text>
</g>
<!-- 42 -->
<g id="node14" class="node">
<title>42</title>
<ellipse fill="none" stroke="#000000" cx="859" cy="-378" rx="27" ry="18"/>
<text text-anchor="middle" x="859" y="-374.3" font-family="Times,serif" font-size="14.00" fill="#000000">42</text>
</g>
<!-- 9&#45;&gt;42 -->
<g id="edge9" class="edge">
<title>9&#45;&gt;42</title>
<path fill="none" stroke="#000000" d="M884.0116,-432.5708C880.1608,-424.1691 875.4583,-413.9091 871.1744,-404.5623"/>
<polygon fill="#000000" stroke="#000000" points="874.2631,-402.901 866.9148,-395.2687 867.8997,-405.8177 874.2631,-402.901"/>
</g>
<!-- 9&#45;&gt;T1 -->
<g id="edge10" class="edge">
<title>9&#45;&gt;T1</title>
<path fill="none" stroke="#000000" d="M870.5886,-438.7103C854.9708,-429.3513 834.5872,-414.589 823,-396 801.3743,-361.3065 804,-346.8816 804,-306 804,-306 804,-306 804,-234 804,-156.5301 702.7233,-115.6324 647.2804,-99.0476"/>
<polygon fill="#000000" stroke="#000000" points="648.0742,-95.634 637.4961,-96.2304 646.1373,-102.3607 648.0742,-95.634"/>
</g>
<!-- 4 -->
<g id="node29" class="node">
<title>4</title>
<ellipse fill="none" stroke="#000000" cx="1030" cy="-306" rx="27" ry="18"/>
<text text-anchor="middle" x="1030" y="-302.3" font-family="Times,serif" font-size="14.00" fill="#000000">4</text>
</g>
<!-- 42&#45;&gt;4 -->
<g id="edge28" class="edge">
<title>42&#45;&gt;4</title>
<path fill="none" stroke="#000000" d="M880.5623,-366.8545C885.2848,-364.516 890.2829,-362.1183 895,-360 929.25,-344.6195 969.2717,-328.883 996.7972,-318.396"/>
<polygon fill="#000000" stroke="#000000" points="998.2281,-321.5967 1006.339,-314.7802 995.7476,-315.0509 998.2281,-321.5967"/>
</g>
<!-- 26&#45;&gt;4 -->
<g id="edge29" class="edge">
<title>26&#45;&gt;4</title>
<path fill="none" stroke="#000000" d="M1096.2037,-363.4297C1084.2002,-353.017 1067.8613,-338.8435 1054.4189,-327.1827"/>
<polygon fill="#000000" stroke="#000000" points="1056.3354,-324.2118 1046.4881,-320.3029 1051.7485,-329.4996 1056.3354,-324.2118"/>
</g>
<!-- 3&#45;&gt;4 -->
<g id="edge30" class="edge">
<title>3&#45;&gt;4</title>
<path fill="none" stroke="#000000" d="M1009.6742,-360.2022C1012.7476,-352.0064 1016.4616,-342.1024 1019.8695,-333.0145"/>
<polygon fill="#000000" stroke="#000000" points="1023.1685,-334.1853 1023.4026,-323.593 1016.6142,-331.7274 1023.1685,-334.1853"/>
</g>
<!-- 15 -->
<g id="node30" class="node">
<title>15</title>
<ellipse fill="none" stroke="#000000" cx="612" cy="-234" rx="27" ry="18"/>
<text text-anchor="middle" x="612" y="-230.3" font-family="Times,serif" font-size="14.00" fill="#000000">15</text>
</g>
<!-- 16&#45;&gt;15 -->
<g id="edge31" class="edge">
<title>16&#45;&gt;15</title>
<path fill="none" stroke="#000000" d="M538.1368,-361.0038C544.4543,-350.3842 552.7351,-336.4153 560,-324 572.6505,-302.3812 586.8699,-277.7473 597.2379,-259.7235"/>
<polygon fill="#000000" stroke="#000000" points="600.3309,-261.3657 602.2799,-250.9517 594.262,-257.8773 600.3309,-261.3657"/>
</g>
<!-- 17&#45;&gt;19 -->
<g id="edge32" class="edge">
<title>17&#45;&gt;19</title>
<path fill="none" stroke="#000000" d="M647.2425,-432.937C651.9537,-424.2393 657.7817,-413.4799 663.0278,-403.7948"/>
<polygon fill="#000000" stroke="#000000" points="666.1385,-405.4005 667.8239,-394.9405 659.9835,-402.0664 666.1385,-405.4005"/>
</g>
<!-- 29 -->
<g id="node32" class="node">
<title>29</title>
<ellipse fill="none" stroke="#000000" cx="175" cy="-234" rx="27" ry="18"/>
<text text-anchor="middle" x="175" y="-230.3" font-family="Times,serif" font-size="14.00" fill="#000000">29</text>
</g>
<!-- 18&#45;&gt;29 -->
<g id="edge33" class="edge">
<title>18&#45;&gt;29</title>
<path fill="none" stroke="#000000" d="M196.222,-288.5708C193.0128,-280.3187 189.1065,-270.2738 185.5242,-261.0623"/>
<polygon fill="#000000" stroke="#000000" points="188.6992,-259.5697 181.8126,-251.5182 182.1752,-262.1069 188.6992,-259.5697"/>
</g>
<!-- 11&#45;&gt;4 -->
<g id="edge34" class="edge">
<title>11&#45;&gt;4</title>
<path fill="none" stroke="#000000" d="M949.6211,-364.4574C964.6935,-353.4956 986.1254,-337.9088 1003.0687,-325.5864"/>
<polygon fill="#000000" stroke="#000000" points="1005.4336,-328.1943 1011.4624,-319.4819 1001.3164,-322.5331 1005.4336,-328.1943"/>
</g>
<!-- 14&#45;&gt;15 -->
<g id="edge35" class="edge">
<title>14&#45;&gt;15</title>
<path fill="none" stroke="#000000" d="M511.2527,-293.9488C530.8839,-282.2675 560.8619,-264.4293 583.0169,-251.2461"/>
<polygon fill="#000000" stroke="#000000" points="584.8773,-254.2119 591.6812,-246.0905 581.2978,-248.1963 584.8773,-254.2119"/>
</g>
<!-- 13&#45;&gt;19 -->
<g id="edge40" class="edge">
<title>13&#45;&gt;19</title>
<path fill="none" stroke="#000000" d="M513.6837,-440.8812C546.7033,-428.1677 606.7123,-405.0626 644.0713,-390.6784"/>
<polygon fill="#000000" stroke="#000000" points="645.4341,-393.9043 653.5086,-387.0448 642.9188,-387.3717 645.4341,-393.9043"/>
</g>
<!-- 12&#45;&gt;29 -->
<g id="edge41" class="edge">
<title>12&#45;&gt;29</title>
<path fill="none" stroke="#000000" d="M168.9254,-359.7101C167.1584,-341.5127 165.1729,-312.8011 167,-288 167.6267,-279.4935 168.8015,-270.2939 170.0616,-261.9399"/>
<polygon fill="#000000" stroke="#000000" points="173.5398,-262.3546 171.6685,-251.9264 166.6282,-261.2455 173.5398,-262.3546"/>
</g>
<!-- 23 -->
<g id="node38" class="node">
<title>23</title>
<ellipse fill="none" stroke="#000000" cx="991" cy="-162" rx="27" ry="18"/>
<text text-anchor="middle" x="991" y="-158.3" font-family="Times,serif" font-size="14.00" fill="#000000">23</text>
</g>
<!-- 32&#45;&gt;23 -->
<g id="edge45" class="edge">
<title>32&#45;&gt;23</title>
<path fill="none" stroke="#000000" d="M513.0033,-228.2399C530.7036,-224.4426 554.6945,-219.5362 576,-216 715.0224,-192.9259 881.6115,-173.8178 954.1894,-165.9116"/>
<polygon fill="#000000" stroke="#000000" points="954.636,-169.3838 964.201,-164.8273 953.8822,-162.4245 954.636,-169.3838"/>
</g>
<!-- 34&#45;&gt;29 -->
<g id="edge46" class="edge">
<title>34&#45;&gt;29</title>
<path fill="none" stroke="#000000" d="M109.5939,-291.4297C121.3754,-281.0851 137.384,-267.0286 150.6145,-255.4116"/>
<polygon fill="#000000" stroke="#000000" points="153.2256,-257.7767 158.4308,-248.5486 148.607,-252.5166 153.2256,-257.7767"/>
</g>
<!-- 5 -->
<g id="node39" class="node">
<title>5</title>
<ellipse fill="none" stroke="#000000" cx="1063" cy="-234" rx="27" ry="18"/>
<text text-anchor="middle" x="1063" y="-230.3" font-family="Times,serif" font-size="14.00" fill="#000000">5</text>
</g>
<!-- 4&#45;&gt;5 -->
<g id="edge51" class="edge">
<title>4&#45;&gt;5</title>
<path fill="none" stroke="#000000" d="M1037.9884,-288.5708C1041.8392,-280.1691 1046.5417,-269.9091 1050.8256,-260.5623"/>
<polygon fill="#000000" stroke="#000000" points="1054.1003,-261.8177 1055.0852,-251.2687 1047.7369,-258.901 1054.1003,-261.8177"/>
</g>
<!-- 15&#45;&gt;T1 -->
<g id="edge62" class="edge">
<title>15&#45;&gt;T1</title>
<path fill="none" stroke="#000000" d="M612,-215.7623C612,-191.201 612,-147.2474 612,-118.3541"/>
<polygon fill="#000000" stroke="#000000" points="615.5001,-118.0896 612,-108.0896 608.5001,-118.0897 615.5001,-118.0896"/>
</g>
<!-- 21 -->
<g id="node40" class="node">
<title>21</title>
<ellipse fill="none" stroke="#000000" cx="749" cy="-306" rx="27" ry="18"/>
<text text-anchor="middle" x="749" y="-302.3" font-family="Times,serif" font-size="14.00" fill="#000000">21</text>
</g>
<!-- 19&#45;&gt;21 -->
<g id="edge52" class="edge">
<title>19&#45;&gt;21</title>
<path fill="none" stroke="#000000" d="M692.2693,-362.7307C702.197,-352.803 715.3153,-339.6847 726.4363,-328.5637"/>
<polygon fill="#000000" stroke="#000000" points="729.1564,-330.7933 733.7527,-321.2473 724.2067,-325.8436 729.1564,-330.7933"/>
</g>
<!-- 20 -->
<g id="node41" class="node">
<title>20</title>
<ellipse fill="none" stroke="#000000" cx="677" cy="-306" rx="27" ry="18"/>
<text text-anchor="middle" x="677" y="-302.3" font-family="Times,serif" font-size="14.00" fill="#000000">20</text>
</g>
<!-- 19&#45;&gt;20 -->
<g id="edge53" class="edge">
<title>19&#45;&gt;20</title>
<path fill="none" stroke="#000000" d="M677,-359.8314C677,-352.131 677,-342.9743 677,-334.4166"/>
<polygon fill="#000000" stroke="#000000" points="680.5001,-334.4132 677,-324.4133 673.5001,-334.4133 680.5001,-334.4132"/>
</g>
<!-- 28 -->
<g id="node42" class="node">
<title>28</title>
<ellipse fill="none" stroke="#000000" cx="347" cy="-306" rx="27" ry="18"/>
<text text-anchor="middle" x="347" y="-302.3" font-family="Times,serif" font-size="14.00" fill="#000000">28</text>
</g>
<!-- 19&#45;&gt;28 -->
<g id="edge54" class="edge">
<title>19&#45;&gt;28</title>
<path fill="none" stroke="#000000" d="M651.4948,-371.8878C635.8191,-368.2243 615.2995,-363.5951 597,-360 502.3615,-341.4074 474.6973,-353.8953 383,-324 381.1066,-323.3827 379.1886,-322.6798 377.2749,-321.9179"/>
<polygon fill="#000000" stroke="#000000" points="378.4364,-318.6041 367.8767,-317.7412 375.5935,-325.0008 378.4364,-318.6041"/>
</g>
<!-- 29&#45;&gt;T30 -->
<g id="edge65" class="edge">
<title>29&#45;&gt;T30</title>
<path fill="none" stroke="#000000" d="M164.3311,-217.3008C158.6414,-208.3952 151.5223,-197.2524 145.1684,-187.307"/>
<polygon fill="#000000" stroke="#000000" points="147.9445,-185.1513 139.6111,-178.6087 142.0456,-188.92 147.9445,-185.1513"/>
</g>
<!-- 37 -->
<g id="node33" class="node">
<title>37</title>
<ellipse fill="none" stroke="#000000" cx="738" cy="-522" rx="27" ry="18"/>
<text text-anchor="middle" x="738" y="-518.3" font-family="Times,serif" font-size="14.00" fill="#000000">37</text>
</g>
<!-- 39 -->
<g id="node34" class="node">
<title>39</title>
<ellipse fill="none" stroke="#000000" cx="710" cy="-450" rx="27" ry="18"/>
<text text-anchor="middle" x="710" y="-446.3" font-family="Times,serif" font-size="14.00" fill="#000000">39</text>
</g>
<!-- 37&#45;&gt;39 -->
<g id="edge36" class="edge">
<title>37&#45;&gt;39</title>
<path fill="none" stroke="#000000" d="M731.222,-504.5708C728.0128,-496.3187 724.1065,-486.2738 720.5242,-477.0623"/>
<polygon fill="#000000" stroke="#000000" points="723.6992,-475.5697 716.8126,-467.5182 717.1752,-478.1069 723.6992,-475.5697"/>
</g>
<!-- 41 -->
<g id="node35" class="node">
<title>41</title>
<ellipse fill="none" stroke="#000000" cx="275" cy="-306" rx="27" ry="18"/>
<text text-anchor="middle" x="275" y="-302.3" font-family="Times,serif" font-size="14.00" fill="#000000">41</text>
</g>
<!-- 37&#45;&gt;41 -->
<g id="edge37" class="edge">
<title>37&#45;&gt;41</title>
<path fill="none" stroke="#000000" d="M711.5925,-518.2034C681.1966,-512.4919 631.6626,-498.8625 602,-468 566.7395,-431.3131 603.3444,-392.2684 564,-360 476.181,-287.9751 419.4202,-357.835 311,-324 309.0989,-323.4067 307.175,-322.7225 305.2567,-321.9748"/>
<polygon fill="#000000" stroke="#000000" points="306.4093,-318.6582 295.8464,-317.8362 303.5912,-325.0659 306.4093,-318.6582"/>
</g>
<!-- 37&#45;&gt;38 -->
<g id="edge38" class="edge">
<title>37&#45;&gt;38</title>
<path fill="none" stroke="#000000" d="M762.6882,-514.337C774.2532,-510.9046 788.2603,-506.9705 801,-504 888.1062,-483.6895 913.4672,-494.1561 999,-468 1002.1966,-467.0225 1005.4761,-465.8655 1008.7205,-464.6169"/>
<polygon fill="#000000" stroke="#000000" points="1010.3267,-467.7402 1018.2301,-460.6843 1007.6516,-461.2715 1010.3267,-467.7402"/>
</g>
<!-- 37&#45;&gt;40 -->
<g id="edge39" class="edge">
<title>37&#45;&gt;40</title>
<path fill="none" stroke="#000000" d="M748.2051,-505.3008C753.5696,-496.5224 760.2626,-485.5703 766.2737,-475.7339"/>
<polygon fill="#000000" stroke="#000000" points="769.3167,-477.4666 771.5447,-467.1086 763.3437,-473.8164 769.3167,-477.4666"/>
</g>
<!-- 39&#45;&gt;15 -->
<g id="edge47" class="edge">
<title>39&#45;&gt;15</title>
<path fill="none" stroke="#000000" d="M688.4228,-438.8118C672.7182,-429.5061 652.2984,-414.7659 641,-396 615.9992,-354.4755 611.398,-296.8472 611.1387,-262.6919"/>
<polygon fill="#000000" stroke="#000000" points="614.6396,-262.4939 611.1868,-252.4775 607.6397,-262.4609 614.6396,-262.4939"/>
</g>
<!-- 41&#45;&gt;29 -->
<g id="edge48" class="edge">
<title>41&#45;&gt;29</title>
<path fill="none" stroke="#000000" d="M256.1908,-292.4574C240.8698,-281.4263 219.0434,-265.7113 201.8789,-253.3528"/>
<polygon fill="#000000" stroke="#000000" points="203.5475,-250.2414 193.387,-247.2387 199.4573,-255.9221 203.5475,-250.2414"/>
</g>
<!-- 38&#45;&gt;4 -->
<g id="edge49" class="edge">
<title>38&#45;&gt;4</title>
<path fill="none" stroke="#000000" d="M1040.62,-431.6876C1041.0429,-413.4732 1041.1868,-384.7489 1039,-360 1038.2471,-351.4793 1036.9112,-342.2755 1035.4953,-333.9221"/>
<polygon fill="#000000" stroke="#000000" points="1038.91,-333.1348 1033.6969,-323.9113 1032.0203,-334.3726 1038.91,-333.1348"/>
</g>
<!-- 40&#45;&gt;19 -->
<g id="edge50" class="edge">
<title>40&#45;&gt;19</title>
<path fill="none" stroke="#000000" d="M762.7414,-436.7941C746.4602,-425.6298 722.9333,-409.4971 704.6411,-396.9539"/>
<polygon fill="#000000" stroke="#000000" points="706.3632,-393.891 696.1365,-391.1222 702.4045,-399.6641 706.3632,-393.891"/>
</g>
<!-- 23&#45;&gt;T1 -->
<g id="edge68" class="edge">
<title>23&#45;&gt;T1</title>
<path fill="none" stroke="#000000" d="M969.2573,-151.2249C963.1454,-148.5368 956.4138,-145.8865 950,-144 843.5629,-112.6943 712.6017,-98.3298 649.4977,-92.8468"/>
<polygon fill="#000000" stroke="#000000" points="649.5035,-89.3349 639.2449,-91.9828 648.9157,-96.3102 649.5035,-89.3349"/>
</g>
<!-- 23&#45;&gt;T24 -->
<g id="edge67" class="edge">
<title>23&#45;&gt;T24</title>
<path fill="none" stroke="#000000" d="M999.7146,-144.5708C1003.9597,-136.0807 1009.1536,-125.6929 1013.8663,-116.2674"/>
<polygon fill="#000000" stroke="#000000" points="1017.024,-117.7782 1018.3657,-107.2687 1010.763,-114.6477 1017.024,-117.7782"/>
</g>
<!-- 5&#45;&gt;23 -->
<g id="edge57" class="edge">
<title>5&#45;&gt;23</title>
<path fill="none" stroke="#000000" d="M1047.7307,-218.7307C1037.803,-208.803 1024.6847,-195.6847 1013.5637,-184.5637"/>
<polygon fill="#000000" stroke="#000000" points="1015.7933,-181.8436 1006.2473,-177.2473 1010.8436,-186.7933 1015.7933,-181.8436"/>
</g>
<!-- 6 -->
<g id="node43" class="node">
<title>6</title>
<ellipse fill="none" stroke="#000000" cx="1135" cy="-162" rx="27" ry="18"/>
<text text-anchor="middle" x="1135" y="-158.3" font-family="Times,serif" font-size="14.00" fill="#000000">6</text>
</g>
<!-- 5&#45;&gt;6 -->
<g id="edge55" class="edge">
<title>5&#45;&gt;6</title>
<path fill="none" stroke="#000000" d="M1078.2693,-218.7307C1088.197,-208.803 1101.3153,-195.6847 1112.4363,-184.5637"/>
<polygon fill="#000000" stroke="#000000" points="1115.1564,-186.7933 1119.7527,-177.2473 1110.2067,-181.8436 1115.1564,-186.7933"/>
</g>
<!-- T35 -->
<g id="node44" class="node">
<title>T35</title>
<ellipse fill="none" stroke="#000000" cx="1063" cy="-162" rx="27" ry="18"/>
<text text-anchor="middle" x="1063" y="-158.3" font-family="Times,serif" font-size="14.00" fill="#000000">T35</text>
</g>
<!-- 5&#45;&gt;T35 -->
<g id="edge56" class="edge">
<title>5&#45;&gt;T35</title>
<path fill="none" stroke="#000000" d="M1063,-215.8314C1063,-208.131 1063,-198.9743 1063,-190.4166"/>
<polygon fill="#000000" stroke="#000000" points="1066.5001,-190.4132 1063,-180.4133 1059.5001,-190.4133 1066.5001,-190.4132"/>
</g>
<!-- 22 -->
<g id="node45" class="node">
<title>22</title>
<ellipse fill="none" stroke="#000000" cx="991" cy="-234" rx="27" ry="18"/>
<text text-anchor="middle" x="991" y="-230.3" font-family="Times,serif" font-size="14.00" fill="#000000">22</text>
</g>
<!-- 21&#45;&gt;22 -->
<g id="edge58" class="edge">
<title>21&#45;&gt;22</title>
<path fill="none" stroke="#000000" d="M773.9868,-298.5659C817.4838,-285.6247 907.1803,-258.9381 956.5483,-244.2501"/>
<polygon fill="#000000" stroke="#000000" points="957.5625,-247.6001 966.1492,-241.3936 955.5663,-240.8907 957.5625,-247.6001"/>
</g>
<!-- 20&#45;&gt;15 -->
<g id="edge59" class="edge">
<title>20&#45;&gt;15</title>
<path fill="none" stroke="#000000" d="M662.896,-290.3771C654.1227,-280.659 642.6827,-267.987 632.8714,-257.1191"/>
<polygon fill="#000000" stroke="#000000" points="635.3755,-254.6698 626.0765,-249.5924 630.1796,-259.3605 635.3755,-254.6698"/>
</g>
<!-- 28&#45;&gt;29 -->
<g id="edge60" class="edge">
<title>28&#45;&gt;29</title>
<path fill="none" stroke="#000000" d="M325.4417,-294.8454C320.719,-292.5075 315.7198,-290.1123 311,-288 276.5115,-272.565 236.1909,-256.8374 208.4568,-246.3673"/>
<polygon fill="#000000" stroke="#000000" points="209.4347,-242.9959 198.8425,-242.758 206.9745,-249.5494 209.4347,-242.9959"/>
</g>
<!-- 7 -->
<g id="node46" class="node">
<title>7</title>
<ellipse fill="none" stroke="#000000" cx="1135" cy="-90" rx="27" ry="18"/>
<text text-anchor="middle" x="1135" y="-86.3" font-family="Times,serif" font-size="14.00" fill="#000000">7</text>
</g>
<!-- 6&#45;&gt;7 -->
<g id="edge61" class="edge">
<title>6&#45;&gt;7</title>
<path fill="none" stroke="#000000" d="M1135,-143.8314C1135,-136.131 1135,-126.9743 1135,-118.4166"/>
<polygon fill="#000000" stroke="#000000" points="1138.5001,-118.4132 1135,-108.4133 1131.5001,-118.4133 1138.5001,-118.4132"/>
</g>
<!-- 22&#45;&gt;23 -->
<g id="edge63" class="edge">
<title>22&#45;&gt;23</title>
<path fill="none" stroke="#000000" d="M991,-215.8314C991,-208.131 991,-198.9743 991,-190.4166"/>
<polygon fill="#000000" stroke="#000000" points="994.5001,-190.4132 991,-180.4133 987.5001,-190.4133 994.5001,-190.4132"/>
</g>
<!-- 22&#45;&gt;T35 -->
<g id="edge64" class="edge">
<title>22&#45;&gt;T35</title>
<path fill="none" stroke="#000000" d="M1006.2693,-218.7307C1016.197,-208.803 1029.3153,-195.6847 1040.4363,-184.5637"/>
<polygon fill="#000000" stroke="#000000" points="1043.1564,-186.7933 1047.7527,-177.2473 1038.2067,-181.8436 1043.1564,-186.7933"/>
</g>
<!-- T8 -->
<g id="node47" class="node">
<title>T8</title>
<ellipse fill="none" stroke="#000000" cx="1135" cy="-18" rx="27" ry="18"/>
<text text-anchor="middle" x="1135" y="-14.3" font-family="Times,serif" font-size="14.00" fill="#000000">T8</text>
</g>
<!-- 7&#45;&gt;T8 -->
<g id="edge66" class="edge">
<title>7&#45;&gt;T8</title>
<path fill="none" stroke="#000000" d="M1135,-71.8314C1135,-64.131 1135,-54.9743 1135,-46.4166"/>
<polygon fill="#000000" stroke="#000000" points="1138.5001,-46.4132 1135,-36.4133 1131.5001,-46.4133 1138.5001,-46.4132"/>
</g>
</g>
</svg>
